<svg width="147" height="56" fill="none" xmlns="http://www.w3.org/2000/svg"><path d="M146.77 5.06c0 8.3-39.44 17.44-42.43 17.44-1.67 0-3.57-.4-3.57-1.96 0-.52.6-1.27 1.64-2.18l-2.77-4.99a1.29 1.29 0 01.63-1.81l.48-.2c.86-.35 1.83-.3 2.65.15l5.03 2.7a119.5 119.5 0 016.51-3.63l-9.8-6.43c-.77-.51-.76-1.67.02-2.16l.8-.51a5.63 5.63 0 014.48-.7l16.3 4.36c5.08-2.04 9.67-3.44 12.39-3.44.72 0 1.45.02 2.15.07l-4.92 2.25-.12 1.68 7.6-3.54c1.82.44 2.93 1.26 2.93 2.9zm-19.82 14.3l6.07 7c.37.43.98.56 1.49.32l.81-.38a3.85 3.85 0 002.17-3.93l-.76-6.6a.63.63 0 00-.84-.52l-8.68 3.1a.64.64 0 00-.26 1.02zM26.62 7.46a8.01 8.01 0 01-2.53-.88V5.42h7.59v1.16c-.34.22-.7.4-1.08.55-.39.14-.76.25-1.12.33l-5.33 19.3-3.13.37-4.66-14.76-4.54 14.4-3.16.36L2.79 7.46c-.42-.08-.82-.19-1.18-.33-.36-.16-.7-.35-1.02-.55V5.42h9.75v1.16a9.27 9.27 0 01-2.5.88l2.8 10.77.63 3.96h.06l1.06-4.12 4-12.65h1.78l4.27 12.5 1.02 3.96h.06l.7-4.02 2.4-10.4zM30.3 19.14c0-1.24.18-2.35.54-3.32.38-1 .91-1.84 1.6-2.53.7-.7 1.54-1.22 2.52-1.59.98-.36 2.1-.55 3.34-.55 1.4 0 2.61.2 3.61.61a6.28 6.28 0 013.95 4.18c.3.97.45 2.04.45 3.2 0 1.24-.18 2.36-.55 3.35a6.73 6.73 0 01-4.12 4.09c-.98.36-2.1.55-3.34.55-1.36 0-2.55-.2-3.55-.58-1-.4-1.84-.96-2.5-1.65a6.76 6.76 0 01-1.47-2.53c-.32-1-.48-2.07-.48-3.23zm4.66 0c0 .91.05 1.76.15 2.53.12.75.32 1.4.6 1.92.28.53.67.95 1.15 1.25.48.29 1.1.43 1.86.43.44 0 .85-.1 1.2-.3.37-.23.68-.58.94-1.04.26-.5.45-1.12.57-1.9.14-.79.21-1.75.21-2.89 0-.93-.06-1.78-.18-2.53-.1-.75-.29-1.4-.57-1.92a2.9 2.9 0 00-1.08-1.22 3.1 3.1 0 00-1.75-.46c-.52 0-.97.11-1.35.34-.38.2-.7.55-.97 1.03-.26.47-.46 1.1-.6 1.9-.12.77-.18 1.72-.18 2.86zM55.96 15.02c-.24.13-.52.33-.84.61a3.7 3.7 0 00-.88 1.4v7.81a6.32 6.32 0 012.41.73v1.2h-8.73v-1.2c.37-.2.7-.35 1.03-.45.32-.1.64-.2.96-.28V13.68l-1.99-.24v-1.19c.33-.14.72-.27 1.18-.4.48-.12.97-.22 1.47-.3.5-.1.99-.18 1.45-.25l1.2-.15h1.02v4.06h.12c.17-.45.4-.92.7-1.4.32-.5.69-.94 1.11-1.35.42-.4.88-.73 1.38-.97.5-.25 1.03-.36 1.57-.34.22.29.41.7.57 1.22.16.51.3 1 .4 1.47v1.18h-4.13zM69.43 26.76h-8.3v-1.19a9.81 9.81 0 011.98-.73V6.37l-2.28-.25V4.93a6.7 6.7 0 011.08-.36c.46-.12.95-.23 1.47-.3.55-.1 1.08-.2 1.6-.25.54-.08 1.02-.14 1.44-.18h1.03v21c.66.16 1.32.4 1.98.73v1.2zM81.38 23.74c-.1.45-.28.88-.54 1.28a4.43 4.43 0 01-2.17 1.83c-.46.19-.95.28-1.47.28-1.99 0-3.5-.63-4.55-1.9-1.02-1.27-1.53-3.22-1.53-5.85 0-1.34.18-2.5.54-3.5a6.3 6.3 0 013.88-4.12 8.7 8.7 0 013.07-.52 11.06 11.06 0 011.6.13 22.83 22.83 0 011.26.37V6.36l-2.29-.25V4.93c.29-.12.67-.23 1.15-.33.5-.1 1.02-.2 1.56-.28l1.6-.27 1.3-.21h1.02V24.6l1.98.24v1.07c-.28.14-.64.27-1.08.4a23.18 23.18 0 01-2.8.57c-.44.09-.81.15-1.11.19h-1.03l-.27-3.33h-.12zm-2.74.95c.7 0 1.3-.22 1.78-.67.48-.45.83-1.21 1.05-2.29v-8.2a3.5 3.5 0 00-1-.4c-.37-.1-.85-.15-1.44-.15-1.16 0-2 .54-2.5 1.62-.5 1.05-.75 2.6-.75 4.63 0 1.65.22 2.97.67 3.96.44 1 1.17 1.5 2.2 1.5zM1.52 47.45c0-1.24.18-2.35.54-3.32.39-1 .92-1.84 1.6-2.53.7-.7 1.54-1.22 2.53-1.59.98-.36 2.1-.55 3.34-.55 1.4 0 2.6.2 3.61.61a6.28 6.28 0 013.94 4.18c.3.97.45 2.04.45 3.2 0 1.24-.18 2.36-.54 3.35a6.74 6.74 0 01-4.12 4.09c-.98.36-2.1.55-3.34.55-1.37 0-2.55-.2-3.55-.58-1-.4-1.84-.96-2.5-1.65A6.76 6.76 0 012 50.68c-.32-1-.48-2.07-.48-3.23zm4.67 0c0 .91.05 1.76.15 2.53.12.75.32 1.4.6 1.92.28.53.66.95 1.14 1.25.49.29 1.1.43 1.87.43.44 0 .84-.1 1.2-.3.36-.23.68-.58.94-1.04a6 6 0 00.57-1.9c.14-.79.2-1.75.2-2.89 0-.94-.05-1.78-.17-2.53-.1-.75-.3-1.4-.57-1.92a2.9 2.9 0 00-1.09-1.22 3.1 3.1 0 00-1.74-.46c-.52 0-.98.11-1.36.34-.38.2-.7.55-.96 1.03-.26.47-.46 1.1-.6 1.9-.12.77-.18 1.72-.18 2.86zM28.12 32.15c.82 0 1.55.08 2.2.24.66.14 1.16.28 1.5.43-.06.67-.19 1.36-.39 2.07-.2.71-.38 1.3-.54 1.77h-1.02l-1.33-2.9c-.52 0-.96.06-1.32.18-.34.1-.63.32-.85.64-.2.33-.35.8-.45 1.4-.1.6-.15 1.37-.15 2.32v1.53h3.2v1.92h-3.2v11.4c1.05.12 2 .37 2.9.73v1.2h-9.22v-1.2a5.87 5.87 0 011.99-.73v-11.4h-2.29v-1.19c.7-.45 1.47-.78 2.29-1v-1.07c0-1.26.17-2.3.51-3.11a4.85 4.85 0 013.55-2.96c.82-.18 1.7-.27 2.62-.27zM38 40.56a7.87 7.87 0 012.42-1.04v-2.47c.12-.12.32-.23.6-.33a24.9 24.9 0 012.7-.76h1.03v3.87h3.97v1.92h-3.97v7.9c0 1.26.15 2.13.45 2.62.32.48.84.73 1.57.73.36 0 .76-.02 1.2-.06.46-.06.88-.17 1.27-.3l.2 1c-.17.18-.45.37-.8.58a9.04 9.04 0 01-4.33 1.22c-1.31 0-2.29-.35-2.93-1.04-.64-.69-.96-1.8-.96-3.35v-9.3H38v-1.19zM58.52 43.33c-.24.13-.52.33-.85.61-.32.29-.6.76-.87 1.4v7.81a6.32 6.32 0 012.4.73v1.2h-8.72v-1.2c.36-.2.7-.35 1.02-.45.33-.1.65-.2.97-.28V42l-1.99-.24v-1.19c.32-.14.71-.27 1.18-.4.48-.12.97-.22 1.47-.3.5-.1.98-.18 1.44-.25.49-.06.89-.1 1.2-.15h1.03v4.06h.12c.16-.45.4-.92.7-1.4.32-.5.69-.94 1.1-1.35.43-.4.89-.73 1.4-.97.5-.25 1.02-.36 1.56-.34.22.29.4.7.57 1.22.16.51.29 1 .39 1.47v1.18h-4.12zM76.9 50.65v1.16l.09 1.04 2.07.3v1.07a5.9 5.9 0 01-1 .36 15.14 15.14 0 01-2.62.61c-.43.08-.82.15-1.16.19h-1.03c-.2-.47-.32-.94-.36-1.4-.04-.47-.07-1.04-.09-1.71h-.15a4.1 4.1 0 01-1.44 2.2 4.64 4.64 0 01-2.98.97c-.66 0-1.28-.1-1.84-.3a4.62 4.62 0 01-1.47-.86 3.97 3.97 0 01-1.36-3.08c0-.91.17-1.67.51-2.26.35-.59.88-1.06 1.6-1.43a9.37 9.37 0 012.83-.85c1.16-.19 2.57-.32 4.21-.4.16-1.75.1-3.03-.2-3.84-.31-.81-.96-1.22-1.97-1.22-.62 0-1.19.1-1.71.3l-1.41 3.66h-1.33a9.83 9.83 0 01-.48-.82l-.42-1-.33-1.1a10.8 10.8 0 01-.18-1.07 9.07 9.07 0 012.95-1.25c1.2-.3 2.47-.46 3.82-.46 1.14 0 2.07.13 2.8.4.72.24 1.28.59 1.68 1.04.42.42.71.93.87 1.52.17.59.25 1.22.25 1.89 0 1.22-.03 2.33-.1 3.32-.03.98-.05 1.98-.05 3.02zM70.12 53c.42 0 .79-.08 1.09-.25a2.76 2.76 0 001.23-1.3c.12-.27.21-.5.27-.7v-3.06c-.94.02-1.71.09-2.32.19-.6.1-1.07.27-1.41.51-.34.23-.58.52-.72.89-.12.34-.18.77-.18 1.28 0 .77.18 1.37.54 1.8.36.43.86.64 1.5.64zM86.82 55.44l-6.02-13.7a8.9 8.9 0 01-1.6-.72v-1.2h7.92V41l-.82.42c-.26.13-.56.24-.9.34l2.8 7.8.57 2.05h.06l.48-2.08 2.56-7.77a5.52 5.52 0 01-1.66-.73v-1.2h5.82v1.2a7.58 7.58 0 01-1.72.73l-5.27 13.32-2.22.37zM109.91 52.51c-.16.35-.42.7-.78 1.07a5.5 5.5 0 01-1.3.94c-.5.27-1.09.48-1.77.64a9.28 9.28 0 01-5.48-.27 6.56 6.56 0 01-2.4-1.62 7.34 7.34 0 01-1.48-2.53 10.5 10.5 0 01-.48-3.29c0-2.6.67-4.58 2.01-5.95 1.35-1.36 3.21-2.04 5.6-2.04 1.03 0 1.98.14 2.86.43a4.9 4.9 0 013.46 3.96c.24 1.06.23 2.35-.03 3.87h-9.24a6 6 0 001.2 3.85c.8.95 1.98 1.43 3.53 1.43.66 0 1.34-.1 2.05-.3.72-.21 1.28-.47 1.68-.8l.57.61zm-6.2-11.31c-.4 0-.76.07-1.08.21-.3.15-.57.41-.81.8-.22.36-.4.87-.55 1.52-.14.63-.24 1.43-.3 2.4h4.85c.14-1.58.05-2.8-.27-3.65a1.81 1.81 0 00-1.84-1.28zM120.69 55.07h-8.3v-1.19a9.81 9.81 0 011.98-.73V34.68l-2.29-.25v-1.19c.26-.12.62-.24 1.09-.36.46-.13.95-.23 1.47-.3.54-.11 1.07-.2 1.6-.25.54-.08 1.02-.14 1.44-.18h1.02v21c.66.16 1.33.4 1.99.73v1.2z" fill="#FCF5ED"/></svg>