<svg width="104" height="39" fill="none" xmlns="http://www.w3.org/2000/svg"><path d="M104 3.1783c0 5.8934-28.0598 12.3986-30.1845 12.3986-1.1913 0-2.5428-.278-2.5428-1.39 0-.3715.4235-.9085 1.1667-1.5558l-1.9705-3.5432c-.2667-.4797-.0553-1.0875.4494-1.2921l.3385-.1372a2.2239 2.2239 0 011.888.1014l3.5758 1.9167c1.3922-.8361 2.9716-1.7116 4.6362-2.5735l-6.9683-4.5774c-.5513-.3622-.5454-1.1813.011-1.5352l.57-.3626a4.005 4.005 0 013.1854-.4925l11.5923 3.096c3.6144-1.4526 6.8823-2.444 8.8166-2.444.5166 0 1.0339.0139 1.5332.05l-3.5008 1.6002-.0838 1.1922 5.4036-2.5152c1.296.3128 2.084.8966 2.084 2.0636zM89.8975 13.3517l4.3239 4.9735a.8919.8919 0 001.0543.2242l.5791-.2726c1.0561-.497 1.678-1.6239 1.5428-2.795l-.5413-4.6864c-.0336-.2899-.3242-.4735-.5962-.3765l-6.1746 2.2023c-.3005.1073-.3987.4883-.188.7305zM18.5212 4.8852c-.571-.0868-1.1705-.2963-1.7986-.6288v-.8238h5.3958v.8238a3.8701 3.8701 0 01-.7709.3903c-.2712.1012-.5352.1806-.7922.2385l-3.7899 13.7233-2.2268.2602-3.3188-10.493-3.2332 10.2328-2.2482.2602L1.563 4.8852c-.2998-.0579-.5782-.1373-.8351-.2385A5.8415 5.8415 0 010 4.2564v-.8238h6.9374v.8238c-.2427.1301-.521.253-.835.3686a8.981 8.981 0 01-.9422.2602l1.9913 7.653.4497 2.8183h.0428l.7494-2.9267 2.8478-8.9972h1.2633l3.0405 8.8888.728 2.8183h.0428l.4925-2.8617 1.7129-7.3928zM21.1346 13.1886c0-.8817.1285-1.6694.3854-2.3632.2712-.7082.6495-1.308 1.1348-1.7994.4996-.4914 1.0992-.8672 1.7986-1.1273.6995-.2602 1.4917-.3903 2.3767-.3903.9993 0 1.8557.1446 2.5695.4336.728.2746 1.3203.6649 1.7771 1.1707.4711.4915.8137 1.0913 1.0278 1.7995.2141.6937.3212 1.4525.3212 2.2764 0 .8816-.1285 1.6765-.3854 2.3847-.257.6938-.6353 1.2864-1.1349 1.7778-.4853.4914-1.0848.8672-1.7986 1.1273-.6994.2602-1.4916.3903-2.3767.3903-.9706 0-1.8128-.1373-2.5266-.4119-.7137-.2891-1.3061-.6793-1.7771-1.1707-.4711-.5059-.8208-1.1057-1.0492-1.7995-.2284-.7082-.3426-1.4742-.3426-2.298zm3.3188 0c0 .6504.0357 1.2502.1071 1.7994.0856.5348.2284.99.4282 1.3658.1999.3758.4711.6721.8137.8889.3426.2023.7851.3035 1.3275.3035.314 0 .5995-.0723.8565-.2168.2569-.159.4782-.4047.6637-.7371.1856-.3469.3212-.7949.4069-1.3442.0999-.5636.1498-1.2502.1498-2.0595 0-.6649-.0428-1.2647-.1284-1.7995-.0714-.5347-.207-.99-.4069-1.3658-.1855-.3758-.4425-.6649-.7708-.8672-.3283-.2168-.7423-.3252-1.2419-.3252-.3711 0-.6923.0795-.9635.2385-.2712.1445-.4996.3902-.6852.737-.1855.3325-.3283.7806-.4282 1.3442-.0856.5493-.1285 1.2286-.1285 2.038zM39.3935 10.2618c-.1713.0867-.3711.2312-.5995.4336-.2284.2023-.4354.5347-.621.9972v5.5501c.2855.0289.571.0867.8565.1734.2855.0723.571.1879.8565.3469v.8455h-6.2094v-.8455c.2569-.1445.4996-.2529.728-.3252.2283-.0723.4567-.1373.6851-.1951V9.3079l-1.4131-.1735V8.289c.2283-.1012.5067-.1951.835-.2818.3426-.0867.6923-.159 1.0492-.2168a15.235 15.235 0 011.0278-.1735l.8564-.1084h.728v2.8835h.0857c.1142-.318.2783-.6504.4924-.9973a5.597 5.597 0 01.7923-.954c.2998-.289.6281-.5203.9849-.6937.3569-.1734.728-.253 1.1134-.2385.1571.2024.2927.4914.4069.8672.1142.3613.2069.7082.2783 1.0407v.8455h-2.9334zM48.9788 18.6085h-5.9097v-.8455c.4711-.2312.9422-.4047 1.4132-.5203V4.1047l-1.6273-.1735v-.8455c.1856-.0867.4425-.1734.7708-.2601.3284-.0868.6781-.159 1.0492-.2168a16.637 16.637 0 011.1348-.1735c.3855-.0578.728-.1011 1.0278-.13h.728v14.9374c.4711.1156.9421.2891 1.4132.5203v.8455zM57.4799 16.4622c-.0713.318-.1998.6215-.3854.9106a3.8266 3.8266 0 01-.6637.7804c-.257.2168-.5496.3903-.8779.5204-.3283.13-.6781.1951-1.0492.1951-1.4132 0-2.4909-.4481-3.2332-1.3442-.728-.9105-1.092-2.298-1.092-4.1625 0-.9539.1285-1.785.3854-2.4932.257-.7227.6138-1.3297 1.0706-1.8211.4711-.4914 1.0349-.86 1.6915-1.1057.6567-.2457 1.3847-.3685 2.184-.3685.257 0 .4711.0072.6424.0217.1856.0144.3497.036.4925.065.157.0144.2997.0506.4282.1084.1428.0434.2998.094.4711.1517V4.1048l-1.6273-.1735v-.8455c.1998-.0867.471-.1662.8136-.2385.3569-.0722.728-.1372 1.1134-.195a37.3462 37.3462 0 011.1349-.1952 43.405 43.405 0 00.9207-.1517h.728v14.764l1.4131.1734v.7588c-.1998.1012-.4567.1951-.7708.2818-.314.0867-.6423.1662-.9849.2385a13.2958 13.2958 0 01-1.0064.1734c-.314.0579-.5781.1012-.7922.1301h-.728l-.1927-2.3631h-.0857zm-1.9484.6721c.4996 0 .9207-.159 1.2633-.477.3425-.3179.5923-.8599.7494-1.626V9.1995c-.1856-.1157-.4211-.2096-.7066-.2819-.2712-.0723-.6138-.1084-1.0278-.1084-.8279 0-1.4203.383-1.7772 1.149-.3568.7516-.5353 1.8501-.5353 3.2954 0 1.1707.1571 2.1102.4711 2.8184.314.7082.8351 1.0623 1.5631 1.0623zM.6638 33.3199c0-.8817.1284-1.6694.3854-2.3631.2712-.7082.6495-1.3081 1.1348-1.7995.4996-.4914 1.0991-.8672 1.7986-1.1273.6994-.2602 1.4917-.3903 2.3767-.3903.9992 0 1.8557.1446 2.5694.4336.728.2747 1.3204.6649 1.7772 1.1708.4711.4914.8136 1.0912 1.0278 1.7994.2141.6937.3211 1.4525.3211 2.2764 0 .8816-.1284 1.6765-.3854 2.3848-.2569.6937-.6352 1.2863-1.1348 1.7777-.4853.4914-1.0849.8672-1.7986 1.1274-.6994.2601-1.4917.3902-2.3767.3902-.9707 0-1.8129-.1373-2.5266-.4119-.7137-.2891-1.3061-.6793-1.7772-1.1707-.471-.5059-.8207-1.1057-1.0491-1.7995-.2284-.7082-.3426-1.4742-.3426-2.298zm3.3188 0c0 .6504.0357 1.2502.107 1.7994.0857.5348.2284.99.4283 1.3658.1998.3758.471.6721.8136.8889.3426.2024.7851.3035 1.3276.3035.314 0 .5995-.0722.8564-.2168.257-.159.4782-.4047.6638-.7371.1856-.3469.3212-.7949.4068-1.3441.1-.5637.15-1.2502.15-2.0596 0-.6649-.043-1.2647-.1286-1.7995-.0713-.5347-.207-.99-.4068-1.3658-.1855-.3758-.4425-.6648-.7708-.8672-.3283-.2168-.7423-.3252-1.2419-.3252-.3711 0-.6923.0795-.9635.2385-.2712.1445-.4996.3902-.6852.7371-.1856.3324-.3283.7805-.4282 1.3442-.0857.5492-.1285 1.2285-.1285 2.0379zM19.5864 22.4366c.5853 0 1.1063.0578 1.5631.1734.4711.1012.8279.2024 1.0706.3035-.0428.477-.1356.9684-.2784 1.4743-.1427.5058-.2712.925-.3854 1.2574h-.728l-.9421-2.0596c-.3711 0-.6852.0434-.9421.1301-.2427.0723-.4425.224-.5996.4553-.1427.2312-.2498.5636-.3211.9972-.0714.4192-.1071.9684-.1071 1.6477v1.084h2.2697v1.3658h-2.2697v8.1083c.7423.0867 1.4275.2602 2.0555.5203v.8455h-6.552v-.8455c.4425-.2601.9136-.4336 1.4132-.5203v-8.1083h-1.6273v-.8455c.4996-.318 1.0421-.5564 1.6273-.7154v-.7588c0-.8961.1213-1.6332.364-2.2114.257-.5925.5995-1.055 1.0278-1.3875.4282-.3469.9278-.5853 1.4988-.7154.5853-.1301 1.2062-.1951 1.8628-.1951zM26.6224 28.4202c.5424-.3469 1.1134-.5926 1.7129-.7371V25.927c.0857-.0867.2284-.1662.4283-.2384a5.083 5.083 0 01.6637-.2168c.2427-.0723.4782-.1374.7066-.1952.2284-.0578.414-.1011.5567-.13h.728v2.7533h2.8264v1.3658h-2.8264v5.6151c0 .8961.1071 1.5176.3212 1.8645.2284.3469.5995.5203 1.1134.5203.2569 0 .5424-.0144.8565-.0433.3283-.0434.6281-.1157.8993-.2168l.1499.7154c-.1285.1301-.3212.2674-.5782.4119-.2426.1445-.5281.2818-.8564.4119-.3141.1301-.6638.2385-1.0492.3252-.3712.0867-.7637.1301-1.1777.1301-.9278 0-1.6201-.2457-2.0769-.7371-.4568-.4914-.6852-1.2864-.6852-2.3848v-6.6124h-1.7129v-.8455zM41.2127 30.3931c-.1713.0867-.3712.2312-.5996.4336-.2284.2023-.4353.5348-.6209.9973v5.55c.2855.0289.571.0867.8565.1734.2855.0723.5709.1879.8564.3469v.8455h-6.2094v-.8455c.257-.1445.4996-.2529.728-.3252.2284-.0722.4568-.1373.6852-.1951v-7.9348l-1.4132-.1735v-.8455c.2284-.1012.5068-.1951.8351-.2818.3426-.0867.6923-.159 1.0492-.2168a15.2402 15.2402 0 011.0277-.1735l.8565-.1084h.728v2.8835h.0856c.1142-.318.2784-.6504.4925-.9973a5.5974 5.5974 0 01.7922-.9539c.2998-.2891.6281-.5203.985-.6938.3569-.1734.728-.2529 1.1134-.2385.157.2024.2926.4915.4068.8672.1142.3614.207.7082.2784 1.0407v.8455h-2.9334zM54.2881 35.5963v.8238c.0142.2312.0357.477.0642.7371l1.4774.2168v.7588c-.1713.0867-.4068.1734-.7066.2602a26.197 26.197 0 01-.9207.2601c-.314.0723-.6281.1301-.9421.1735-.314.0578-.5924.1011-.8351.13h-.728c-.1427-.3324-.2283-.6648-.2569-.9972-.0285-.3325-.05-.7371-.0642-1.2141h-.1071c-.0714.2891-.1927.5709-.364.8455-.1713.2602-.3925.4986-.6638.7154-.2569.2024-.5638.3686-.9207.4987-.3568.1301-.7565.1951-1.199.1951-.4711 0-.9065-.0723-1.3061-.2168-.3997-.1445-.7495-.3469-1.0492-.607a2.82 2.82 0 01-.7066-.9323c-.1713-.3758-.2569-.7949-.2569-1.2574 0-.6504.1213-1.1852.3639-1.6043.2427-.4192.621-.7588 1.1349-1.019.5281-.2746 1.199-.4769 2.0127-.607.8279-.1301 1.8271-.224 2.9976-.2818.1142-1.243.0643-2.1536-.1499-2.7317-.2141-.5781-.678-.8672-1.3917-.8672-.4425 0-.8493.0723-1.2205.2168l-1.0063 2.6016h-.9422c-.1142-.1735-.2284-.3686-.3425-.5854-.1-.2312-.1999-.4697-.2998-.7154a16.0726 16.0726 0 01-.2355-.7805 7.6563 7.6563 0 01-.1285-.7588c.5424-.3758 1.2419-.6721 2.0983-.8889.8565-.2168 1.7629-.3252 2.7193-.3252.8137 0 1.4775.094 1.9913.2819.5139.1734.9136.4191 1.1991.7371.2998.3035.5067.6648.6209 1.084.1142.4191.1713.8672.1713 1.3441 0 .8672-.0214 1.6549-.0642 2.3632a52.1344 52.1344 0 00-.0428 2.1463zm-4.8177 1.6693c.2998 0 .5567-.0578.7708-.1734.2142-.1157.3926-.253.5353-.4119.1571-.159.2713-.3325.3426-.5204.0857-.1879.1499-.3541.1927-.4986v-2.168c-.6709.0145-1.2204.0578-1.6487.1301-.4282.0723-.7637.1951-1.0063.3686-.2427.1589-.414.3685-.5139.6287-.0857.2457-.1285.5492-.1285.9105 0 .5492.1285.9756.3854 1.2791.257.3035.6138.4553 1.0706.4553zM61.3463 39l-4.2824-9.7343c-.4139-.1445-.7922-.3179-1.1348-.5203v-.8455h5.6313v.8238a21.5232 21.5232 0 01-.5781.3036c-.1856.0867-.3997.1662-.6424.2384l1.9913 5.5501.4068 1.4525h.0429l.3425-1.4742 1.8201-5.5284a4.1892 4.1892 0 01-.6424-.2168 3.9267 3.9267 0 01-.5353-.3035v-.8455h4.1325v.8455c-.1428.1012-.3212.1951-.5353.2819-.1999.0867-.4283.1662-.6852.2384l-3.7471 9.4741L61.3463 39zM77.778 36.9187c-.1142.2457-.2998.4987-.5567.7588-.2427.2457-.5496.4698-.9207.6721-.3569.1879-.778.3397-1.2633.4553-.4711.1301-.985.1951-1.5417.1951-.885 0-1.6701-.1301-2.3553-.3902-.6852-.2746-1.2561-.6577-1.7129-1.1491-.4568-.5058-.8065-1.1056-1.0492-1.7994-.2284-.6938-.3426-1.4742-.3426-2.3414 0-1.85.4782-3.2592 1.4346-4.2276.9564-.9684 2.2839-1.4526 3.9826-1.4526.728 0 1.406.1012 2.0341.3036.6424.2023 1.1705.5347 1.5845.9972.4282.4625.7208 1.0696.8779 1.8211.1713.7516.1641 1.6694-.0215 2.7534h-6.5734c.0143 1.1418.2998 2.0524.8565 2.7317.571.6793 1.4061 1.0189 2.5052 1.0189.471 0 .9564-.0723 1.456-.2168.5139-.1445.9136-.3324 1.199-.5637l.4069.4336zm-4.4109-8.0432c-.2855 0-.5424.0506-.7708.1518-.2141.1011-.4068.289-.5781.5636-.157.2602-.2855.6215-.3854 1.084-.0999.4481-.1713 1.019-.2141 1.7127h3.4473c.0999-1.1273.0357-1.9945-.1927-2.6015-.2284-.6071-.6638-.9106-1.3062-.9106zM85.4457 38.7398h-5.9096v-.8455c.471-.2312.9421-.4047 1.4132-.5203V24.236l-1.6273-.1734v-.8456c.1855-.0867.4425-.1734.7708-.2601.3283-.0867.678-.159 1.0492-.2168a16.5652 16.5652 0 011.1348-.1734c.3854-.0579.728-.1012 1.0278-.1301h.728V37.374c.471.1156.9421.2891 1.4131.5203v.8455z" fill="#FCF5ED"/></svg>